<svg xmlns="http://www.w3.org/2000/svg" viewBox="0 0 256 256"><defs><style>.cls-1{fill:#2e7eba;}</style></defs><g id="Layer_2" data-name="Layer 2"><g id="Layer_1-2" data-name="Layer 1"><path class="cls-1" d="M0,20.36V235.64A20.37,20.37,0,0,0,20.36,256H235.64A20.37,20.37,0,0,0,256,235.64V20.36A20.37,20.37,0,0,0,235.64,0H20.36A20.37,20.37,0,0,0,0,20.36Zm46,6.58H210l-82,82Zm79.79,117.88v84.24h-35V109.77Zm26.94,26.94L210,229.06H152.71ZM147.05,128l82-82V210ZM26.94,46,63.78,82.83V229.06H26.94Z"/></g></g></svg>